<svg xmlns="http://www.w3.org/2000/svg" preserveAspectRatio="xMidYMid" width="480" height="36"><defs><style>.isusvg{fill:#ffffff;}</style></defs><path d="M476.797 9.989l-7.406 11.389.201 8.991c-.081 3.787.908 3.646 3.202 4.196v.6c.013.072-2.954-.069-5.204 0-2.083-.069-5.144.072-5.204 0v-.6c2.698-.55 3.028-.363 3.202-4.196v-8.991l-7.406-11.189c-1.671-2.315-1.529-2.362-3.203-2.798v-.599c.025-.093 2.616.001 4.604 0 1.968.001 4.747-.093 4.804 0v.599c-1.847.577-2.883.671-1.601 2.598l6.005 9.99 5.804-9.99c.661-1.363 1.038-2.209-1.801-2.598v-.599c.013-.093 1.945.001 3.803 0 1.627.001 3.322-.093 3.403 0v.599c-1.918.389-1.965.859-3.203 2.598zm-23.019 1.998c-.799-3.22-1.788-3.737-6.406-3.797-3.059.06-3.154.06-3.201 0v22.179c.047 3.41.142 3.881 3.201 4.196.049.813.049.766 0 .8.049-.034-3.059-.175-5.203-.2-2.189.025-5.344.166-5.405.2.061-.034.061.013 0-.8 3.216-.315 3.31-.832 3.403-4.196V8.19h-3.403c-4.508.06-5.451.577-6.204 3.797-.99.025-.801.025-.801 0l.399-5.395c.073.06 9.822.201 12.011.2 2.144.001 12.082-.14 12.009-.2l.401 5.395c-.093.025.095.025-.801 0zm-30.024 23.178c-1.954-.069-4.64.119-4.604.2-.036-.081-.036-.081 0-.8 2.697-.504 2.65-.504 2.602-8.591v-9.991c.048-8.156.141-8.156-2.602-8.592-.036-.739-.036-.739 0-.799-.036.06 2.65.154 4.604.2 2.143-.046 4.78-.14 4.803-.2-.023.06-.023.06 0 .799-2.754.436-2.754.436-2.802 8.592v9.991c.048 8.087.048 8.087 2.802 8.591-.023.719-.023.719 0 .8-.023-.081-2.66-.269-4.803-.2zm-18.215.599c-3.991-.057-7.806-1.703-7.807-1.798l-.401-5.195c.072-.022.072-.022 1.001 0 .201 1.012.342 2.705 1.402 3.596 4.969 3.857 12.694 1.648 12.61-4.196.084-7.18-14.376-4.594-14.412-13.986.036-4.054 4.322-8.003 9.808-7.993 2.991-.01 6.618 1.118 6.605 1.199l.2 4.995h-.8c-.046-.045-.517-2.913-1.602-3.397-4.568-2.572-10.737-1.256-10.808 3.797-.024 7.171 14.578 4.585 14.612 13.987-.034 4.233-3.519 8.887-10.408 8.991zm-13.612-6.394c2.979 4.691 2.932 4.974 5.605 5.395v.6c-.082.013-1.825-.081-2.803 0-.811-.081-2.507-.034-3.203 0-1.895-2.197-3.873-5.817-5.404-8.193-2.237-3.407-4.31-5.804-7.406-5.594-.059.072-.059 8.769 0 8.592.13 4.032.554 4.127 2.602 4.595v.6c.071-.034-2.143-.034-4.804 0-1.531-.081-4.639.013-4.604 0v-.6c1.943-.28 2.697-.938 2.602-4.595V11.587c.095-3.196-.754-3.854-2.602-3.996v-.799c-.035.048 2.462.142 3.603.199 1.355-.057 4.18-.386 6.206-.399 4.851.06 10.456 1.94 10.408 7.593.048 5.302-4.757 5.913-6.605 6.793 2.084 1.565 5.24 6.502 6.405 8.392zm-4.004-15.185c-.176-6.358-6.251-6.687-9.207-5.396v11.59c2.579.565 9.314.33 9.207-6.194zm-18.815 21.18c-.059.013-9.997-.128-11.81-.2-2.755.072-6.664.213-6.606.2v-.8c2.249-.268 2.579-.315 2.603-3.996V11.587c.023-3.807-.494-4.089-2.603-4.196-2.744-.034-3.356.577-4.804 4.196L335.88 35.964h-1.001c.071-.022-9.302-22.824-10.008-24.377-1.555-3.007-1.508-3.901-4.003-4.196-2.685.436-2.685.436-2.602 8.592v9.991c-.083 8.087-.083 8.087 2.602 8.591.046.719.046.719 0 .8.046-.081-2.591-.269-4.604-.2-2.085-.069-4.769.119-4.804.2.035-.081.035-.081 0-.8 2.766-.504 2.719-.504 2.802-8.591v-9.991c-.083-8.156.011-8.156-2.802-8.592.035-.739.035-.739 0-.799.035.06 2.719.154 4.804.2 2.013-.046 4.65-.14 4.604-.2.025.033.036.053.033.188.337-.071 3.686.013 4.57.012 1.048.001 5.287-.14 5.205-.2v.799c-2.226.295-2.979.906-1.602 3.996l7.607 18.183 7.205-19.581c.342-1.315.484-2.021-1.8-2.598v-.599c.022-.093 3.555.001 4.803 0 1.766-.046 3.792-.093 3.803 0v-.2c-.058.06 5.876.154 8.607.2 3.014-.046 8.243-.14 9.008-.2.036 1 .46 3.868.6 4.795l-.8.2c-.942-2.773-1.931-3.948-11.009-3.197.035-.045.035 11.332 0 11.189 8.419.143 9.549.331 9.808-2.797h.8c-.258 2.799-.352 4.491-.2 7.193h-.801c-.152-2.936-1.236-2.749-9.607-2.797v12.388c7.994.449 11.339.167 12.61-3.796l.801.4c-.424 1.353-1.46 5.208-1.401 5.195zm-63.653.399l-1.402-.2-20.417-23.178V30.17c-.071 2.763.306 3.891 3.203 4.395v.6c-.024.072-2.333-.069-4.404 0-1.696-.069-4.004.072-4.003 0v-.6c2.778-.504 3.248-1.632 3.203-4.395V11.587c.045-3.196-2.073-3.713-4.004-4.196v-.799c-.095.06 1.601.154 3.403.2 2.013-.046 2.813-.14 2.803-.2l19.616 22.378V11.587c.035-3.384-.625-3.901-3.403-4.196v-.799c0 .06 2.355.201 4.204.2 1.966.001 4.085-.14 4.003-.2v.799c-2.178.718-2.791.859-2.802 3.996v24.377zM276.815 1.4c.005-.001.01-.002.015-.004-.005.016-.01.015-.015.004zm-3.388 5.791v16.385c-.036 5.831-3.002 8.37-3.001 8.392-.001-.022-3.251 3.833-10.209 3.796-7.361.037-10.516-4.806-10.609-4.795.093-.011-1.791-1.938-1.801-8.992V7.391c.01-5.299-.696-5.534-3.203-5.995V.597c.058-.01 3.449.131 5.805.2 2.447-.069 5.792-.21 5.805-.2v.799c-1.568.554-3.452.225-3.403 5.995v14.586c-.049 5.926 1.364 7.242 1.4 7.193-.036.049 2.084 4.139 8.008 4.197 5.285-.058 7.452-4.101 7.406-4.197.046.096 1.27-1.079 1.401-6.793-.036.119-.036-15.02 0-14.986-.131-5.299-.601-5.253-4.404-5.995V.597c.081-.01 2.154.131 5.405.2 2.637-.069 4.756-.21 4.803-.2-.042-.009-.047.719-.015.803-2.205.551-3.517.843-3.388 5.791zm-54.445 27.974c-2.863-.069-6.771.072-6.805 0v-.6c2.341-.409 2.671-.456 2.802-4.196V11.587c-.084-3.948-.932-4.042-2.802-4.396v-.599c.034-.081 5.968.013 8.807 0 2.907.013 8.135-.081 8.808 0 .128.859.552 3.727.6 4.595l-.6.2c-1.05-2.713-2.039-3.889-11.01-3.197-.072.013-.072 11.391 0 11.389 8.312.002 9.442.19 9.609-2.997h.8c-.166 2.858-.26 4.551-.2 7.193h-.8c-.061-2.878-1.145-2.689-9.409-2.597v12.189c7.887.506 11.232.224 12.411-3.597l.801.199c-.332 1.413-1.368 5.268-1.401 5.196.033.072-9.905-.069-11.611 0zm-9.408-23.178c-.849-3.22-1.837-3.737-6.404-3.797-3.111.06-3.205.06-3.203 0v22.179c-.002 3.41.092 3.881 3.203 4.196-.002.813-.002.766 0 .8-.002-.034-3.111-.175-5.205-.2-2.239.025-5.395.166-5.405.2.01-.034.01.013 0-.8 3.166-.315 3.26-.832 3.203-4.196V8.19h-3.203c-4.558.06-5.5.577-6.404 3.797-.838.025-.651.025-.601 0l.4-5.395c.022.06 9.771.201 12.01.2 2.094.001 12.032-.14 12.01-.2l.201 5.395c.056.025.245.025-.602 0zm-20.216 22.778c-.085.801-.085.707 0 .799-.085-.092-2.769-.233-5.004-.199-2.287-.034-5.066.107-5.004.199-.062-.092-.062.002 0-.799 1.728-.327 2.906-.375 2.001-2.598l-3.002-8.591h-9.609l-3.201 8.591c-.946 2.223.892 2.318 2.401 2.598-.002.801-.002.707 0 .799-.002-.092-1.981-.233-3.804-.199-1.803-.034-3.875.107-3.802.199-.073-.092-.12.096-.2-.799 1.681-.609 1.917-.609 2.802-2.598l9.408-22.178c.775-1.974-1.157-2.115-3.404-2.598.082-.88.082-.739 0-.799.082.06 1.918.107 3.804.2 1.74-.093 3.341-.14 3.403-.2l9.608 25.575c.975 1.989 2.152 2.318 3.603 2.598zm-15.613-23.777l-4.204 10.59h8.007l-3.803-10.59zm-10.609.999c-.662-3.22-1.651-3.737-6.205-3.797-2.904.056-3.189.06-3.203.012v22.167c-.015 3.41.08 3.881 3.203 4.196-.014.813-.014.766 0 .8-.014-.034-3.123-.175-5.205-.2-2.25.025-5.406.166-5.404.2-.002-.034-.002.013 0-.8 3.154-.315 3.247-.832 3.203-4.196V8.19h-3.203c-4.571.06-5.513.577-6.405 3.797-.851.025-.662.025-.601 0l.401-5.395c.009.06 9.759.201 12.009.2 2.082.001 12.02-.14 12.011-.2l.2 5.395c.045.025.232.025-.801 0zm-36.63 23.977c-4.867-.022-9.529-1.996-9.608-1.998l-.2-6.394c-.097-.046-.097-.046 1 0 .268 1.223.456 3.245 1.802 4.196 5.955 4.832 15.374 2.153 15.413-4.995-.039-8.696-17.606-5.547-17.615-16.784.009-5.124 5.189-9.919 12.01-9.991 3.494.072 7.922 1.482 8.007 1.398l.2 6.195h-1.001c-.085.001-.697-3.478-2.002-4.196-5.572-3.043-13.061-1.445-13.01 4.795-.145 8.664 17.564 5.514 17.614 16.984-.05 5.079-4.242 10.721-12.61 10.79zm-26.022-.799c-2.252.025-5.031.166-5.004.2-.027-.034-.027.06 0-.8 1.762-.268 2.94-.315 2.002-2.597l-3.003-8.392h-9.408l-3.403 8.392c-.91 2.282.927 2.376 2.402 2.597.032.86.032.766 0 .8.032-.034-1.946-.175-3.803-.2-1.77.025-3.842.166-3.803.2-.039-.034-.086.154 0-.8 1.516-.55 1.751-.55 2.601-2.597l9.409-21.979c.809-2.115-1.122-2.256-3.202-2.798-.086-.821-.086-.68 0-.599-.086-.081 1.75-.035 3.602 0 1.775-.035 3.377-.081 3.403 0l9.808 25.376c.809 2.047 1.987 2.376 3.403 2.597-.05.86-.05.766 0 .8-.05-.034-2.735-.175-5.004-.2zM90.075 10.788l-4.204 10.59h7.807l-3.603-10.59zm-10.408-.799L69.658 35.764h-1.001L61.852 19.38l-7.006 16.384h-.801L43.636 9.989c-.793-1.786-1.028-2.068-3.403-2.798-.027-.774-.074-.68 0-.599-.074-.081 2.564-.035 4.805 0 2.151-.032 4.684-.074 5.133-.017-.006.057.018.219.071.616-2.406.307-3.065 1.106-2.402 2.798l7.807 19.581 5.203-12.388-3.002-7.193c-.922-2.068-1.063-2.209-3.402-2.798.015-.37.022-.539.023-.608.229-.068 2.784-.024 4.98.009 2.281-.035 5.013-.081 5.005 0 .008-.081.008-.128 0 .599-2.112.307-2.959 1.106-2.403 2.798l8.208 19.581 7.006-19.581c.526-2.068.055-2.491-2.803-2.798-.015-.774-.015-.68 0-.599-.015-.081 2.152-.035 4.004 0 1.735-.034 4.055-.078 4.183-.005 0 .068.007.238.021.604-2.053.307-2.43 1.106-3.003 2.798zM50.242 6.592c-.007-.007-.035-.012-.071-.017.004-.046.027-.02.071.017zm4.227-.009c-.01.003-.022.005-.023.009.016-.043.024-.085.023-.009zm28.201.009c-.001-.002-.018-.003-.021-.005 0-.067.007-.035.021.005zM27.623 35.764c-8.281-.057-15.158-6.404-15.213-14.786.055-8.449 6.932-14.843 15.213-14.786 8.014-.057 14.985 6.337 15.012 14.786-.074 8.382-6.998 14.729-15.012 14.786zm0-28.173c-5.55-.046-10.543 4.044-10.609 13.387.066 9.275 5.059 13.319 10.609 13.387 5.33-.068 10.322-4.112 10.408-13.387-.086-9.343-5.078-13.433-10.408-13.387zM5.805 35.165c-2.572-.069-5.774.166-5.805.2.031-.034.031-.034 0-1 3.328-.492 3.328-.492 3.403-10.39V11.987C3.328 2.138 3.375 2.138 0 1.597.019 1.056.027.852.022.792.248.738 3.317.867 5.805.797c2.347.07 5.377-.06 5.585-.005-.005.061.002.265.02.805-3.325.541-3.325.541-3.403 10.39v11.988c.078 9.898.078 9.898 3.403 10.39-.028.966-.028.966 0 1-.028-.034-3.184-.269-5.605-.2zM.022.792C.014.793.001.795 0 .797.012.771.019.755.022.792zM11.41.797c-.001-.002-.014-.003-.02-.005.002-.037.009-.021.02.005z" id="path-1" class="isusvg" fill-rule="evenodd"/></svg>
